<svg width="631" height="603" viewBox="0 0 631 603" fill="none" xmlns="http://www.w3.org/2000/svg">
<g filter="url(#filter0_d_1639_1377)">
<path d="M150.518 171.737L385.937 124.653L437.301 146.055L150.518 428.557V171.737Z" fill="white"/>
<path d="M606.384 469.221C606.384 481.739 599.49 494.477 585.219 506.856C570.965 519.221 549.966 530.648 523.462 540.373C470.503 559.804 396.915 571.949 315.32 571.949C233.725 571.949 160.137 559.804 107.179 540.373C80.6739 530.648 59.675 519.221 45.4209 506.856C31.1502 494.477 24.2565 481.739 24.2565 469.221C24.2565 456.702 31.1502 443.964 45.4209 431.585C59.675 419.22 80.6739 407.793 107.179 398.068C160.137 378.638 233.725 366.492 315.32 366.492C396.915 366.492 470.503 378.638 523.462 398.068C549.966 407.793 570.965 419.22 585.219 431.585C599.49 443.964 606.384 456.702 606.384 469.221Z" fill="#006F21" stroke="black" stroke-width="12.841"/>
<path d="M152.661 488.479C120.13 469.646 139.107 454.95 152.661 449.956L430.888 392.171L473.691 409.293C494.237 417.853 484.392 439.255 484.392 439.255C421.613 467.077 296.913 524.862 283.216 533.423C269.518 541.984 248.973 536.99 240.412 533.423L152.661 488.479Z" fill="#004C1A"/>
<path d="M155.957 272.896L335.231 259.484L248.979 509.882L171.285 477.78L155.957 272.896Z" fill="white"/>
<circle cx="547.562" cy="299.115" r="14.9812" transform="rotate(-117.931 547.562 299.115)" fill="white" stroke="black" stroke-width="12.841"/>
<path d="M532.112 303.144L431.734 269.157C418.283 251.095 432.644 240.413 441.506 237.33L541.224 283.779L532.112 303.144Z" fill="white" stroke="black" stroke-width="12.841" stroke-linecap="round" stroke-linejoin="round"/>
<path d="M242.551 501.322L236.131 244.499C236.131 220.957 240.411 216.677 251.112 212.397C257.471 209.853 389.51 171.02 454.429 150.332C459.629 148.674 462.086 146.696 463.144 144.894C463.094 143.106 463.043 141.351 462.989 139.632C456.233 123.73 397.241 112.728 355.981 118.229L290.215 133.823L290.847 148.936L163.365 184.576C149.668 188 147.67 198.844 148.384 203.837L176.206 479.919C162.509 479.919 156.231 464.224 154.804 456.377L124.842 197.416C124.842 180.295 140.536 170.307 148.384 167.454L290.215 133.823L288.846 101.109L285.355 17.6423C297.482 29.77 335.435 52.7412 390.223 47.6048C393.264 71.1467 377.246 114.806 288.846 101.109L290.215 133.823L355.981 118.229C397.241 112.728 456.233 123.73 462.989 139.632C462.989 139.632 464.818 142.043 463.144 144.894C465.617 234.405 462.989 408.538 462.989 413.574C462.989 418.71 462.989 424.274 459.068 428.555L263.953 516.303C257.533 518.443 244.692 514.164 242.551 501.322Z" fill="white"/>
<path d="M176.206 479.919C162.509 479.919 156.231 464.224 154.804 456.377L124.842 197.416C124.842 180.295 140.536 170.307 148.384 167.454L355.981 118.229C397.241 112.728 456.233 123.73 462.989 139.632M176.206 479.919L148.384 203.837C147.67 198.844 149.668 188 163.365 184.576L362.401 128.931C388.083 120.371 448.008 134.282 443.728 139.632C439.447 144.982 299.623 181.721 231.85 197.416C224.003 200.27 208.309 211.114 208.309 231.66C211.162 317.267 217.297 489.765 219.009 494.901C221.15 501.322 233.991 509.882 242.551 507.742M176.206 479.919C186.193 484.913 208.309 494.901 216.869 494.901M462.989 139.632C462.989 139.632 467.859 146.052 454.429 150.332C389.51 171.02 257.471 209.853 251.112 212.397C240.411 216.677 236.131 220.957 236.131 244.499L242.551 501.322C244.692 514.164 257.533 518.443 263.953 516.303L459.068 428.555C462.989 424.274 462.989 418.71 462.989 413.574C462.989 408.437 465.723 227.379 462.989 139.632ZM272.514 167.454C279.118 170.284 285.721 171.451 291.775 171.138M311.037 163.174C306.25 167.961 299.455 170.741 291.775 171.138M291.775 171.138L288.846 101.109M288.846 101.109L285.355 17.6423C297.482 29.77 335.435 52.7412 390.223 47.6048C393.264 71.1467 377.246 114.806 288.846 101.109Z" stroke="black" stroke-width="12.841" stroke-linecap="round" stroke-linejoin="round"/>
<path d="M255.388 261.622C254.674 250.207 255.386 233.799 266.092 227.379" stroke="black" stroke-width="12.841" stroke-linecap="round" stroke-linejoin="round"/>
<circle cx="86.3197" cy="405.014" r="14.9812" fill="white" stroke="black" stroke-width="12.841"/>
<circle cx="257.535" cy="289.444" r="4.28035" fill="#D9D9D9" stroke="black" stroke-width="8.56069"/>
<path d="M330.3 285.161C330.3 289.369 329.438 292.966 328.245 295.354C327.648 296.546 327.049 297.279 326.587 297.669C326.367 297.856 326.208 297.939 326.124 297.973C326.082 297.99 326.056 297.997 326.043 297.999C326.031 298.002 326.024 298.002 326.02 298.002C326.015 298.002 326.009 298.002 325.996 297.999C325.984 297.997 325.957 297.99 325.916 297.973C325.831 297.939 325.673 297.856 325.452 297.669C324.99 297.279 324.391 296.546 323.795 295.354C322.601 292.966 321.739 289.369 321.739 285.161C321.739 280.954 322.601 277.356 323.795 274.969C324.391 273.776 324.99 273.044 325.452 272.653C325.673 272.466 325.831 272.384 325.916 272.349C325.957 272.332 325.984 272.325 325.996 272.323C326.009 272.32 326.015 272.32 326.02 272.32C326.024 272.32 326.031 272.32 326.043 272.323C326.056 272.325 326.082 272.332 326.124 272.349C326.208 272.384 326.367 272.466 326.587 272.653C327.049 273.044 327.648 273.776 328.245 274.969C329.438 277.356 330.3 280.954 330.3 285.161Z" fill="#D9D9D9" stroke="black" stroke-width="8.56069"/>
<path d="M385.945 268.042C385.945 272.249 385.083 275.847 383.889 278.234C383.293 279.427 382.694 280.159 382.232 280.55C382.011 280.737 381.853 280.819 381.768 280.854C381.727 280.871 381.7 280.878 381.688 280.88C381.675 280.883 381.669 280.883 381.664 280.883C381.66 280.883 381.653 280.883 381.641 280.88C381.628 280.878 381.602 280.871 381.56 280.854C381.476 280.819 381.317 280.737 381.096 280.55C380.635 280.159 380.036 279.427 379.439 278.234C378.246 275.847 377.384 272.249 377.384 268.042C377.384 263.834 378.246 260.237 379.439 257.849C380.036 256.657 380.635 255.924 381.096 255.534C381.317 255.347 381.476 255.264 381.56 255.23C381.602 255.213 381.628 255.206 381.641 255.204C381.653 255.201 381.66 255.201 381.664 255.201C381.669 255.201 381.675 255.201 381.688 255.204C381.7 255.206 381.727 255.213 381.768 255.23C381.853 255.264 382.011 255.347 382.232 255.534C382.694 255.924 383.293 256.657 383.889 257.849C385.083 260.237 385.945 263.834 385.945 268.042Z" fill="#D9D9D9" stroke="black" stroke-width="8.56069"/>
<path d="M298.197 323.688C325.306 362.211 388.085 396.454 420.187 293.725" stroke="black" stroke-width="12.841" stroke-linecap="round" stroke-linejoin="round"/>
<path d="M91.0508 385.913L171.925 310.843C186.173 302.956 199.446 327.291 193.915 333.927L105.43 402.504L98.7933 393.655L91.0508 385.913Z" fill="white" stroke="black" stroke-width="12.841" stroke-linecap="round" stroke-linejoin="round"/>
<path d="M272.516 167.453C279.119 170.284 285.723 171.451 291.777 171.138M311.039 163.174C306.252 167.961 299.457 170.74 291.777 171.138M291.777 171.138L288.848 101.109" stroke="black" stroke-width="10.7009" stroke-linecap="round" stroke-linejoin="round"/>
<path d="M390.228 47.6045C335.439 52.7409 297.487 29.7697 285.359 17.6421L288.851 101.109C377.251 114.806 393.269 71.1464 390.228 47.6045Z" fill="#FF494D" stroke="black" stroke-width="10.7009" stroke-linecap="round" stroke-linejoin="round"/>
</g>
<defs>
<filter id="filter0_d_1639_1377" x="0.477837" y="0.806818" width="629.685" height="601.864" filterUnits="userSpaceOnUse" color-interpolation-filters="sRGB">
<feFlood flood-opacity="0" result="BackgroundImageFix"/>
<feColorMatrix in="SourceAlpha" type="matrix" values="0 0 0 0 0 0 0 0 0 0 0 0 0 0 0 0 0 0 127 0" result="hardAlpha"/>
<feOffset dy="6.94324"/>
<feGaussianBlur stdDeviation="8.67905"/>
<feComposite in2="hardAlpha" operator="out"/>
<feColorMatrix type="matrix" values="0 0 0 0 0 0 0 0 0 0 0 0 0 0 0 0 0 0 0.25 0"/>
<feBlend mode="normal" in2="BackgroundImageFix" result="effect1_dropShadow_1639_1377"/>
<feBlend mode="normal" in="SourceGraphic" in2="effect1_dropShadow_1639_1377" result="shape"/>
</filter>
</defs>
</svg>
